<?xml version="1.0" encoding="UTF-8" standalone="no"?>
<!DOCTYPE svg PUBLIC "-//W3C//DTD SVG 1.1//EN"
 "http://www.w3.org/Graphics/SVG/1.1/DTD/svg11.dtd">
<!-- Generated by graphviz version 2.38.0 (20140413.2041)
 -->
<!-- Title: G Pages: 1 -->
<svg width="519pt" height="1342pt"
 viewBox="0.00 0.00 519.20 1342.00" xmlns="http://www.w3.org/2000/svg" xmlns:xlink="http://www.w3.org/1999/xlink">
<g id="graph0" class="graph" transform="scale(1 1) rotate(0) translate(4 1338)">
<title>G</title>
<polygon fill="white" stroke="none" points="-4,4 -4,-1338 515.204,-1338 515.204,4 -4,4"/>
<g id="clust1" class="cluster"><title>cluster_Global</title>
<path fill="none" stroke="gray" d="M358.82,-8C358.82,-8 491.204,-8 491.204,-8 497.204,-8 503.204,-14 503.204,-20 503.204,-20 503.204,-1314 503.204,-1314 503.204,-1320 497.204,-1326 491.204,-1326 491.204,-1326 358.82,-1326 358.82,-1326 352.82,-1326 346.82,-1320 346.82,-1314 346.82,-1314 346.82,-20 346.82,-20 346.82,-14 352.82,-8 358.82,-8"/>
<text text-anchor="middle" x="425.012" y="-1312.1" font-family="Times,serif" font-size="11.00" fill="gray">Global</text>
</g>
<g id="clust2" class="cluster"><title>cluster_\Maaa16</title>
<path fill="none" stroke="gray" d="M366.82,-134C366.82,-134 483.204,-134 483.204,-134 489.204,-134 495.204,-140 495.204,-146 495.204,-146 495.204,-1285 495.204,-1285 495.204,-1291 489.204,-1297 483.204,-1297 483.204,-1297 366.82,-1297 366.82,-1297 360.82,-1297 354.82,-1291 354.82,-1285 354.82,-1285 354.82,-146 354.82,-146 354.82,-140 360.82,-134 366.82,-134"/>
<text text-anchor="middle" x="425.012" y="-1283.1" font-family="Times,serif" font-size="11.00" fill="gray">Maaa16</text>
</g>
<g id="clust3" class="cluster"><title>cluster_\Maaa16\App</title>
<path fill="none" stroke="gray" d="M402.012,-1195C402.012,-1195 448.012,-1195 448.012,-1195 454.012,-1195 460.012,-1201 460.012,-1207 460.012,-1207 460.012,-1256 460.012,-1256 460.012,-1262 454.012,-1268 448.012,-1268 448.012,-1268 402.012,-1268 402.012,-1268 396.012,-1268 390.012,-1262 390.012,-1256 390.012,-1256 390.012,-1207 390.012,-1207 390.012,-1201 396.012,-1195 402.012,-1195"/>
<text text-anchor="middle" x="425.012" y="-1254.1" font-family="Times,serif" font-size="11.00" fill="gray">App</text>
</g>
<g id="clust4" class="cluster"><title>cluster_\Maaa16\Block</title>
<path fill="none" stroke="gray" d="M402.012,-1114C402.012,-1114 448.012,-1114 448.012,-1114 454.012,-1114 460.012,-1120 460.012,-1126 460.012,-1126 460.012,-1175 460.012,-1175 460.012,-1181 454.012,-1187 448.012,-1187 448.012,-1187 402.012,-1187 402.012,-1187 396.012,-1187 390.012,-1181 390.012,-1175 390.012,-1175 390.012,-1126 390.012,-1126 390.012,-1120 396.012,-1114 402.012,-1114"/>
<text text-anchor="middle" x="425.012" y="-1173.1" font-family="Times,serif" font-size="11.00" fill="gray">Block</text>
</g>
<g id="clust5" class="cluster"><title>cluster_\Maaa16\Calendar</title>
<path fill="none" stroke="gray" d="M394.617,-1033C394.617,-1033 455.408,-1033 455.408,-1033 461.408,-1033 467.408,-1039 467.408,-1045 467.408,-1045 467.408,-1094 467.408,-1094 467.408,-1100 461.408,-1106 455.408,-1106 455.408,-1106 394.617,-1106 394.617,-1106 388.617,-1106 382.617,-1100 382.617,-1094 382.617,-1094 382.617,-1045 382.617,-1045 382.617,-1039 388.617,-1033 394.617,-1033"/>
<text text-anchor="middle" x="425.012" y="-1092.1" font-family="Times,serif" font-size="11.00" fill="gray">Calendar</text>
</g>
<g id="clust6" class="cluster"><title>cluster_\Maaa16\Connect</title>
<path fill="none" stroke="gray" d="M397.916,-952C397.916,-952 452.108,-952 452.108,-952 458.108,-952 464.108,-958 464.108,-964 464.108,-964 464.108,-1013 464.108,-1013 464.108,-1019 458.108,-1025 452.108,-1025 452.108,-1025 397.916,-1025 397.916,-1025 391.916,-1025 385.916,-1019 385.916,-1013 385.916,-1013 385.916,-964 385.916,-964 385.916,-958 391.916,-952 397.916,-952"/>
<text text-anchor="middle" x="425.012" y="-1011.1" font-family="Times,serif" font-size="11.00" fill="gray">Connect</text>
</g>
<g id="clust7" class="cluster"><title>cluster_\Maaa16\Content</title>
<path fill="none" stroke="gray" d="M397.916,-871C397.916,-871 452.108,-871 452.108,-871 458.108,-871 464.108,-877 464.108,-883 464.108,-883 464.108,-932 464.108,-932 464.108,-938 458.108,-944 452.108,-944 452.108,-944 397.916,-944 397.916,-944 391.916,-944 385.916,-938 385.916,-932 385.916,-932 385.916,-883 385.916,-883 385.916,-877 391.916,-871 397.916,-871"/>
<text text-anchor="middle" x="425.012" y="-930.1" font-family="Times,serif" font-size="11.00" fill="gray">Content</text>
</g>
<g id="clust8" class="cluster"><title>cluster_\Maaa16\Cookie</title>
<path fill="none" stroke="gray" d="M401.215,-790C401.215,-790 448.809,-790 448.809,-790 454.809,-790 460.809,-796 460.809,-802 460.809,-802 460.809,-851 460.809,-851 460.809,-857 454.809,-863 448.809,-863 448.809,-863 401.215,-863 401.215,-863 395.215,-863 389.215,-857 389.215,-851 389.215,-851 389.215,-802 389.215,-802 389.215,-796 395.215,-790 401.215,-790"/>
<text text-anchor="middle" x="425.012" y="-849.1" font-family="Times,serif" font-size="11.00" fill="gray">Cookie</text>
</g>
<g id="clust9" class="cluster"><title>cluster_\Maaa16\Database</title>
<path fill="none" stroke="gray" d="M394.617,-709C394.617,-709 455.408,-709 455.408,-709 461.408,-709 467.408,-715 467.408,-721 467.408,-721 467.408,-770 467.408,-770 467.408,-776 461.408,-782 455.408,-782 455.408,-782 394.617,-782 394.617,-782 388.617,-782 382.617,-776 382.617,-770 382.617,-770 382.617,-721 382.617,-721 382.617,-715 388.617,-709 394.617,-709"/>
<text text-anchor="middle" x="425.012" y="-768.1" font-family="Times,serif" font-size="11.00" fill="gray">Database</text>
</g>
<g id="clust10" class="cluster"><title>cluster_\Maaa16\DBTable</title>
<path fill="none" stroke="gray" d="M397.916,-628C397.916,-628 452.108,-628 452.108,-628 458.108,-628 464.108,-634 464.108,-640 464.108,-640 464.108,-689 464.108,-689 464.108,-695 458.108,-701 452.108,-701 452.108,-701 397.916,-701 397.916,-701 391.916,-701 385.916,-695 385.916,-689 385.916,-689 385.916,-640 385.916,-640 385.916,-634 391.916,-628 397.916,-628"/>
<text text-anchor="middle" x="425.012" y="-687.1" font-family="Times,serif" font-size="11.00" fill="gray">DBTable</text>
</g>
<g id="clust11" class="cluster"><title>cluster_\Maaa16\Gravatar</title>
<path fill="none" stroke="gray" d="M394.617,-547C394.617,-547 455.408,-547 455.408,-547 461.408,-547 467.408,-553 467.408,-559 467.408,-559 467.408,-608 467.408,-608 467.408,-614 461.408,-620 455.408,-620 455.408,-620 394.617,-620 394.617,-620 388.617,-620 382.617,-614 382.617,-608 382.617,-608 382.617,-559 382.617,-559 382.617,-553 388.617,-547 394.617,-547"/>
<text text-anchor="middle" x="425.012" y="-606.1" font-family="Times,serif" font-size="11.00" fill="gray">Gravatar</text>
</g>
<g id="clust12" class="cluster"><title>cluster_\Maaa16\Guess</title>
<path fill="none" stroke="gray" d="M402.012,-466C402.012,-466 448.012,-466 448.012,-466 454.012,-466 460.012,-472 460.012,-478 460.012,-478 460.012,-527 460.012,-527 460.012,-533 454.012,-539 448.012,-539 448.012,-539 402.012,-539 402.012,-539 396.012,-539 390.012,-533 390.012,-527 390.012,-527 390.012,-478 390.012,-478 390.012,-472 396.012,-466 402.012,-466"/>
<text text-anchor="middle" x="425.012" y="-525.1" font-family="Times,serif" font-size="11.00" fill="gray">Guess</text>
</g>
<g id="clust13" class="cluster"><title>cluster_\Maaa16\Navbar</title>
<path fill="none" stroke="gray" d="M401.215,-385C401.215,-385 448.809,-385 448.809,-385 454.809,-385 460.809,-391 460.809,-397 460.809,-397 460.809,-446 460.809,-446 460.809,-452 454.809,-458 448.809,-458 448.809,-458 401.215,-458 401.215,-458 395.215,-458 389.215,-452 389.215,-446 389.215,-446 389.215,-397 389.215,-397 389.215,-391 395.215,-385 401.215,-385"/>
<text text-anchor="middle" x="425.012" y="-444.1" font-family="Times,serif" font-size="11.00" fill="gray">Navbar</text>
</g>
<g id="clust14" class="cluster"><title>cluster_\Maaa16\Session</title>
<path fill="none" stroke="gray" d="M397.916,-304C397.916,-304 452.108,-304 452.108,-304 458.108,-304 464.108,-310 464.108,-316 464.108,-316 464.108,-365 464.108,-365 464.108,-371 458.108,-377 452.108,-377 452.108,-377 397.916,-377 397.916,-377 391.916,-377 385.916,-371 385.916,-365 385.916,-365 385.916,-316 385.916,-316 385.916,-310 391.916,-304 397.916,-304"/>
<text text-anchor="middle" x="425.012" y="-363.1" font-family="Times,serif" font-size="11.00" fill="gray">Session</text>
</g>
<g id="clust15" class="cluster"><title>cluster_\Maaa16\Textfilter</title>
<path fill="none" stroke="gray" d="M388.018,-223C388.018,-223 462.007,-223 462.007,-223 468.007,-223 474.007,-229 474.007,-235 474.007,-235 474.007,-284 474.007,-284 474.007,-290 468.007,-296 462.007,-296 462.007,-296 388.018,-296 388.018,-296 382.018,-296 376.018,-290 376.018,-284 376.018,-284 376.018,-235 376.018,-235 376.018,-229 382.018,-223 388.018,-223"/>
<text text-anchor="middle" x="425.012" y="-282.1" font-family="Times,serif" font-size="11.00" fill="gray">Textfilter</text>
</g>
<g id="clust16" class="cluster"><title>cluster_\Maaa16\Webshopcontent</title>
<path fill="none" stroke="gray" d="M374.82,-142C374.82,-142 475.204,-142 475.204,-142 481.204,-142 487.204,-148 487.204,-154 487.204,-154 487.204,-203 487.204,-203 487.204,-209 481.204,-215 475.204,-215 475.204,-215 374.82,-215 374.82,-215 368.82,-215 362.82,-209 362.82,-203 362.82,-203 362.82,-154 362.82,-154 362.82,-148 368.82,-142 374.82,-142"/>
<text text-anchor="middle" x="425.012" y="-201.1" font-family="Times,serif" font-size="11.00" fill="gray">Webshopcontent</text>
</g>
<g id="clust17" class="cluster"><title>cluster_\Anax</title>
<path fill="none" stroke="gray" d="M366.82,-16C366.82,-16 483.204,-16 483.204,-16 489.204,-16 495.204,-22 495.204,-28 495.204,-28 495.204,-114 495.204,-114 495.204,-120 489.204,-126 483.204,-126 483.204,-126 366.82,-126 366.82,-126 360.82,-126 354.82,-120 354.82,-114 354.82,-114 354.82,-28 354.82,-28 354.82,-22 360.82,-16 366.82,-16"/>
<text text-anchor="middle" x="425.012" y="-112.1" font-family="Times,serif" font-size="11.00" fill="gray">Anax</text>
</g>
<g id="clust18" class="cluster"><title>cluster_\Anax\GuessException</title>
<path fill="none" stroke="gray" d="M374.82,-24C374.82,-24 475.204,-24 475.204,-24 481.204,-24 487.204,-30 487.204,-36 487.204,-36 487.204,-85 487.204,-85 487.204,-91 481.204,-97 475.204,-97 475.204,-97 374.82,-97 374.82,-97 368.82,-97 362.82,-91 362.82,-85 362.82,-85 362.82,-36 362.82,-36 362.82,-30 368.82,-24 374.82,-24"/>
<text text-anchor="middle" x="425.012" y="-83.1" font-family="Times,serif" font-size="11.00" fill="gray">GuessException</text>
</g>
<!-- \\Maaa16\\App\\App -->
<g id="node1" class="node"><title>\\Maaa16\\App\\App</title>
<polygon fill="none" stroke="black" points="452.012,-1239 398.012,-1239 398.012,-1203 452.012,-1203 452.012,-1239"/>
<text text-anchor="middle" x="425.012" y="-1217.7" font-family="Courier,monospace" font-size="11.00">App</text>
</g>
<!-- \\Maaa16\\Block\\Block -->
<g id="node2" class="node"><title>\\Maaa16\\Block\\Block</title>
<polygon fill="none" stroke="black" points="452.012,-1158 398.012,-1158 398.012,-1122 452.012,-1122 452.012,-1158"/>
<text text-anchor="middle" x="425.012" y="-1136.7" font-family="Courier,monospace" font-size="11.00">Block</text>
</g>
<!-- \\Maaa16\\Calendar\\Calendar -->
<g id="node3" class="node"><title>\\Maaa16\\Calendar\\Calendar</title>
<polygon fill="none" stroke="black" points="459.304,-1077 390.721,-1077 390.721,-1041 459.304,-1041 459.304,-1077"/>
<text text-anchor="middle" x="425.012" y="-1055.7" font-family="Courier,monospace" font-size="11.00">Calendar</text>
</g>
<!-- \\Maaa16\\Connect\\Connect -->
<g id="node4" class="node"><title>\\Maaa16\\Connect\\Connect</title>
<polygon fill="none" stroke="black" points="456.205,-996 393.82,-996 393.82,-960 456.205,-960 456.205,-996"/>
<text text-anchor="middle" x="425.012" y="-974.7" font-family="Courier,monospace" font-size="11.00">Connect</text>
</g>
<!-- \\Maaa16\\Content\\Content -->
<g id="node5" class="node"><title>\\Maaa16\\Content\\Content</title>
<polygon fill="none" stroke="black" points="456.205,-915 393.82,-915 393.82,-879 456.205,-879 456.205,-915"/>
<text text-anchor="middle" x="425.012" y="-893.7" font-family="Courier,monospace" font-size="11.00">Content</text>
</g>
<!-- \\Maaa16\\Cookie\\Cookie -->
<g id="node6" class="node"><title>\\Maaa16\\Cookie\\Cookie</title>
<polygon fill="none" stroke="black" points="452.607,-834 397.417,-834 397.417,-798 452.607,-798 452.607,-834"/>
<text text-anchor="middle" x="425.012" y="-812.7" font-family="Courier,monospace" font-size="11.00">Cookie</text>
</g>
<!-- \\Maaa16\\Database\\Database -->
<g id="node7" class="node"><title>\\Maaa16\\Database\\Database</title>
<polygon fill="none" stroke="black" points="459.304,-753 390.721,-753 390.721,-717 459.304,-717 459.304,-753"/>
<text text-anchor="middle" x="425.012" y="-731.7" font-family="Courier,monospace" font-size="11.00">Database</text>
</g>
<!-- \\Anax\\Common\\ConfigureInterface -->
<g id="node16" class="node"><title>\\Anax\\Common\\ConfigureInterface</title>
<ellipse fill="none" stroke="black" cx="149.41" cy="-573" rx="149.32" ry="18"/>
<text text-anchor="middle" x="149.41" y="-568.8" font-family="Times,serif" font-size="14.00" fill="gray">\Anax\Common\ConfigureInterface</text>
</g>
<!-- \\Maaa16\\Database\\Database&#45;&gt;\\Anax\\Common\\ConfigureInterface -->
<g id="edge1" class="edge"><title>\\Maaa16\\Database\\Database&#45;&gt;\\Anax\\Common\\ConfigureInterface</title>
<path fill="none" stroke="black" stroke-dasharray="1,5" d="M390.627,-723.86C376.768,-718.769 360.712,-712.254 346.82,-705 285.029,-672.737 218.869,-625.257 181.274,-596.903"/>
<polygon fill="none" stroke="black" points="183.33,-594.07 173.248,-590.813 179.098,-599.646 183.33,-594.07"/>
</g>
<!-- \\Maaa16\\DBTable\\DBTable -->
<g id="node8" class="node"><title>\\Maaa16\\DBTable\\DBTable</title>
<polygon fill="none" stroke="black" points="456.205,-672 393.82,-672 393.82,-636 456.205,-636 456.205,-672"/>
<text text-anchor="middle" x="425.012" y="-650.7" font-family="Courier,monospace" font-size="11.00">DBTable</text>
</g>
<!-- \\Maaa16\\Gravatar\\Gravatar -->
<g id="node9" class="node"><title>\\Maaa16\\Gravatar\\Gravatar</title>
<polygon fill="none" stroke="black" points="459.304,-591 390.721,-591 390.721,-555 459.304,-555 459.304,-591"/>
<text text-anchor="middle" x="425.012" y="-569.7" font-family="Courier,monospace" font-size="11.00">Gravatar</text>
</g>
<!-- \\Maaa16\\Guess\\Guess -->
<g id="node10" class="node"><title>\\Maaa16\\Guess\\Guess</title>
<polygon fill="none" stroke="black" points="452.012,-510 398.012,-510 398.012,-474 452.012,-474 452.012,-510"/>
<text text-anchor="middle" x="425.012" y="-488.7" font-family="Courier,monospace" font-size="11.00">Guess</text>
</g>
<!-- \\Maaa16\\Navbar\\Navbar -->
<g id="node11" class="node"><title>\\Maaa16\\Navbar\\Navbar</title>
<polygon fill="none" stroke="black" points="452.607,-429 397.417,-429 397.417,-393 452.607,-393 452.607,-429"/>
<text text-anchor="middle" x="425.012" y="-407.7" font-family="Courier,monospace" font-size="11.00">Navbar</text>
</g>
<!-- \\Maaa16\\Navbar\\Navbar&#45;&gt;\\Anax\\Common\\ConfigureInterface -->
<g id="edge3" class="edge"><title>\\Maaa16\\Navbar\\Navbar&#45;&gt;\\Anax\\Common\\ConfigureInterface</title>
<path fill="none" stroke="black" stroke-dasharray="1,5" d="M397.28,-426.828C348.651,-455.622 245.548,-516.668 189.19,-550.038"/>
<polygon fill="none" stroke="black" points="187.384,-547.04 180.562,-555.147 190.95,-553.064 187.384,-547.04"/>
</g>
<!-- \\Maaa16\\Session\\Session -->
<g id="node12" class="node"><title>\\Maaa16\\Session\\Session</title>
<polygon fill="none" stroke="black" points="456.205,-348 393.82,-348 393.82,-312 456.205,-312 456.205,-348"/>
<text text-anchor="middle" x="425.012" y="-326.7" font-family="Courier,monospace" font-size="11.00">Session</text>
</g>
<!-- \\Maaa16\\Textfilter\\Textfilter -->
<g id="node13" class="node"><title>\\Maaa16\\Textfilter\\Textfilter</title>
<polygon fill="none" stroke="black" points="466.001,-267 384.023,-267 384.023,-231 466.001,-231 466.001,-267"/>
<text text-anchor="middle" x="425.012" y="-245.7" font-family="Courier,monospace" font-size="11.00">Textfilter</text>
</g>
<!-- \\Maaa16\\Webshopcontent\\Webshopcontent -->
<g id="node14" class="node"><title>\\Maaa16\\Webshopcontent\\Webshopcontent</title>
<polygon fill="none" stroke="black" points="479.397,-186 370.627,-186 370.627,-150 479.397,-150 479.397,-186"/>
<text text-anchor="middle" x="425.012" y="-164.7" font-family="Courier,monospace" font-size="11.00">Webshopcontent</text>
</g>
<!-- \\Anax\\GuessException\\GuessException -->
<g id="node15" class="node"><title>\\Anax\\GuessException\\GuessException</title>
<polygon fill="none" stroke="black" points="479.397,-68 370.627,-68 370.627,-32 479.397,-32 479.397,-68"/>
<text text-anchor="middle" x="425.012" y="-46.7" font-family="Courier,monospace" font-size="11.00">GuessException</text>
</g>
<!-- \\Exception -->
<g id="node17" class="node"><title>\\Exception</title>
<ellipse fill="none" stroke="black" cx="149.41" cy="-50" rx="52.7488" ry="18"/>
<text text-anchor="middle" x="149.41" y="-45.8" font-family="Times,serif" font-size="14.00" fill="gray">\Exception</text>
</g>
<!-- \\Anax\\GuessException\\GuessException&#45;&gt;\\Exception -->
<g id="edge2" class="edge"><title>\\Anax\\GuessException\\GuessException&#45;&gt;\\Exception</title>
<path fill="none" stroke="black" d="M370.609,-50C325.261,-50 260.141,-50 212.48,-50"/>
<polygon fill="none" stroke="black" points="212.286,-46.5001 202.286,-50 212.286,-53.5001 212.286,-46.5001"/>
</g>
</g>
</svg>
